<svg xmlns="http://www.w3.org/2000/svg" xmlns:xlink="http://www.w3.org/1999/xlink" version="1.1" class="marks" width="454" height="364" viewBox="0 0 454 364"><rect width="454" height="364" fill="white"/><g fill="none" stroke-miterlimit="10" transform="translate(47,27)"><g class="mark-group role-frame root" role="graphics-object" aria-roledescription="group mark container"><g transform="translate(0,0)"><path class="background" aria-hidden="true" d="M0.5,0.5h400v300h-400Z" stroke="#ddd"/><g><g class="mark-group role-axis" role="graphics-symbol" aria-roledescription="axis" aria-label="X-axis for a time scale with values from Tuesday, 16 September 2014, 6:00:00 PM to Sunday, 18 April 2021, 6:00:00 PM"><g transform="translate(0.5,300.5)"><path class="background" aria-hidden="true" d="M0,0h0v0h0Z" pointer-events="none"/><g><g class="mark-rule role-axis-grid" pointer-events="none"><line transform="translate(18,-300)" x2="0" y2="300" stroke="#ddd" stroke-width="1" opacity="1"/><line transform="translate(78,-300)" x2="0" y2="300" stroke="#ddd" stroke-width="1" opacity="1"/><line transform="translate(139,-300)" x2="0" y2="300" stroke="#ddd" stroke-width="1" opacity="1"/><line transform="translate(200,-300)" x2="0" y2="300" stroke="#ddd" stroke-width="1" opacity="1"/><line transform="translate(261,-300)" x2="0" y2="300" stroke="#ddd" stroke-width="1" opacity="1"/><line transform="translate(321,-300)" x2="0" y2="300" stroke="#ddd" stroke-width="1" opacity="1"/><line transform="translate(382,-300)" x2="0" y2="300" stroke="#ddd" stroke-width="1" opacity="1"/></g></g><path class="foreground" aria-hidden="true" d="" pointer-events="none" display="none"/></g></g><g class="mark-group role-axis" role="graphics-symbol" aria-roledescription="axis" aria-label="Y-axis for a linear scale with values from 0.0 to 0.4"><g transform="translate(0.5,0.5)"><path class="background" aria-hidden="true" d="M0,0h0v0h0Z" pointer-events="none"/><g><g class="mark-rule role-axis-grid" pointer-events="none"><line transform="translate(0,300)" x2="400" y2="0" stroke="#ddd" stroke-width="1" opacity="1"/><line transform="translate(0,263)" x2="400" y2="0" stroke="#ddd" stroke-width="1" opacity="1"/><line transform="translate(0,225)" x2="400" y2="0" stroke="#ddd" stroke-width="1" opacity="1"/><line transform="translate(0,188)" x2="400" y2="0" stroke="#ddd" stroke-width="1" opacity="1"/><line transform="translate(0,150)" x2="400" y2="0" stroke="#ddd" stroke-width="1" opacity="1"/><line transform="translate(0,113)" x2="400" y2="0" stroke="#ddd" stroke-width="1" opacity="1"/><line transform="translate(0,75)" x2="400" y2="0" stroke="#ddd" stroke-width="1" opacity="1"/><line transform="translate(0,38)" x2="400" y2="0" stroke="#ddd" stroke-width="1" opacity="1"/><line transform="translate(0,0)" x2="400" y2="0" stroke="#ddd" stroke-width="1" opacity="1"/></g></g><path class="foreground" aria-hidden="true" d="" pointer-events="none" display="none"/></g></g><g class="mark-group role-axis" role="graphics-symbol" aria-roledescription="axis" aria-label="X-axis titled 'Date' for a time scale with values from Tuesday, 16 September 2014, 6:00:00 PM to Sunday, 18 April 2021, 6:00:00 PM"><g transform="translate(0.5,300.5)"><path class="background" aria-hidden="true" d="M0,0h0v0h0Z" pointer-events="none"/><g><g class="mark-rule role-axis-tick" pointer-events="none"><line transform="translate(18,0)" x2="0" y2="5" stroke="#888" stroke-width="1" opacity="1"/><line transform="translate(78,0)" x2="0" y2="5" stroke="#888" stroke-width="1" opacity="1"/><line transform="translate(139,0)" x2="0" y2="5" stroke="#888" stroke-width="1" opacity="1"/><line transform="translate(200,0)" x2="0" y2="5" stroke="#888" stroke-width="1" opacity="1"/><line transform="translate(261,0)" x2="0" y2="5" stroke="#888" stroke-width="1" opacity="1"/><line transform="translate(321,0)" x2="0" y2="5" stroke="#888" stroke-width="1" opacity="1"/><line transform="translate(382,0)" x2="0" y2="5" stroke="#888" stroke-width="1" opacity="1"/></g><g class="mark-text role-axis-label" pointer-events="none"><text text-anchor="middle" transform="translate(17.671100027708505,15)" font-family="sans-serif" font-size="10px" fill="#000" opacity="1">2015</text><text text-anchor="middle" transform="translate(78.35272928789139,15)" font-family="sans-serif" font-size="10px" fill="#000" opacity="1">2016</text><text text-anchor="middle" transform="translate(139.20060958714325,15)" font-family="sans-serif" font-size="10px" fill="#000" opacity="1">2017</text><text text-anchor="middle" transform="translate(199.8822388473261,15)" font-family="sans-serif" font-size="10px" fill="#000" opacity="1">2018</text><text text-anchor="middle" transform="translate(260.563868107509,15)" font-family="sans-serif" font-size="10px" fill="#000" opacity="1">2019</text><text text-anchor="middle" transform="translate(321.2454973676919,15)" font-family="sans-serif" font-size="10px" fill="#000" opacity="1">2020</text><text text-anchor="middle" transform="translate(382.09337766694375,15)" font-family="sans-serif" font-size="10px" fill="#000" opacity="1">2021</text></g><g class="mark-rule role-axis-domain" pointer-events="none"><line transform="translate(0,0)" x2="400" y2="0" stroke="#888" stroke-width="1" opacity="1"/></g><g class="mark-text role-axis-title" pointer-events="none"><text text-anchor="middle" transform="translate(200,30)" font-family="sans-serif" font-size="11px" font-weight="bold" fill="#000" opacity="1">Date</text></g></g><path class="foreground" aria-hidden="true" d="" pointer-events="none" display="none"/></g></g><g class="mark-group role-axis" role="graphics-symbol" aria-roledescription="axis" aria-label="Y-axis titled 'Close' for a linear scale with values from 0.0 to 0.4"><g transform="translate(0.5,0.5)"><path class="background" aria-hidden="true" d="M0,0h0v0h0Z" pointer-events="none"/><g><g class="mark-rule role-axis-tick" pointer-events="none"><line transform="translate(0,300)" x2="-5" y2="0" stroke="#888" stroke-width="1" opacity="1"/><line transform="translate(0,263)" x2="-5" y2="0" stroke="#888" stroke-width="1" opacity="1"/><line transform="translate(0,225)" x2="-5" y2="0" stroke="#888" stroke-width="1" opacity="1"/><line transform="translate(0,188)" x2="-5" y2="0" stroke="#888" stroke-width="1" opacity="1"/><line transform="translate(0,150)" x2="-5" y2="0" stroke="#888" stroke-width="1" opacity="1"/><line transform="translate(0,113)" x2="-5" y2="0" stroke="#888" stroke-width="1" opacity="1"/><line transform="translate(0,75)" x2="-5" y2="0" stroke="#888" stroke-width="1" opacity="1"/><line transform="translate(0,38)" x2="-5" y2="0" stroke="#888" stroke-width="1" opacity="1"/><line transform="translate(0,0)" x2="-5" y2="0" stroke="#888" stroke-width="1" opacity="1"/></g><g class="mark-text role-axis-label" pointer-events="none"><text text-anchor="end" transform="translate(-7,303)" font-family="sans-serif" font-size="10px" fill="#000" opacity="1">0.00</text><text text-anchor="end" transform="translate(-7,265.5)" font-family="sans-serif" font-size="10px" fill="#000" opacity="1">0.05</text><text text-anchor="end" transform="translate(-7,228)" font-family="sans-serif" font-size="10px" fill="#000" opacity="1">0.10</text><text text-anchor="end" transform="translate(-7,190.5)" font-family="sans-serif" font-size="10px" fill="#000" opacity="1">0.15</text><text text-anchor="end" transform="translate(-7,153)" font-family="sans-serif" font-size="10px" fill="#000" opacity="1">0.20</text><text text-anchor="end" transform="translate(-7,115.5)" font-family="sans-serif" font-size="10px" fill="#000" opacity="1">0.25</text><text text-anchor="end" transform="translate(-7,78.00000000000003)" font-family="sans-serif" font-size="10px" fill="#000" opacity="1">0.30</text><text text-anchor="end" transform="translate(-7,40.500000000000036)" font-family="sans-serif" font-size="10px" fill="#000" opacity="1">0.35</text><text text-anchor="end" transform="translate(-7,3)" font-family="sans-serif" font-size="10px" fill="#000" opacity="1">0.40</text></g><g class="mark-rule role-axis-domain" pointer-events="none"><line transform="translate(0,300)" x2="0" y2="-300" stroke="#888" stroke-width="1" opacity="1"/></g><g class="mark-text role-axis-title" pointer-events="none"><text text-anchor="middle" transform="translate(-30.462890625,150) rotate(-90) translate(0,-2)" font-family="sans-serif" font-size="11px" font-weight="bold" fill="#000" opacity="1">Close</text></g></g><path class="foreground" aria-hidden="true" d="" pointer-events="none" display="none"/></g></g><g class="mark-line role-mark marks" role="graphics-symbol" aria-roledescription="line mark container"><path d="M0,299.79900000000004L0.1662510390689942,299.7765L0.3325020781379884,299.79225L0.4987531172069825,299.781L0.6650041562759768,299.784L0.8312551953449709,299.7765L0.997506234413965,299.76525L1.1637572734829593,299.739L1.3300083125519535,299.71875L1.4962593516209477,299.66175000000004L1.6625103906899419,299.71875L1.828761429758936,299.706L1.99501246882793,299.703L2.1612635078969245,299.70075L2.3275145469659186,299.72175L2.493765586034913,299.7495L2.660016625103907,299.7555L2.826267664172901,299.775L2.9925187032418954,299.79525L3.158769742310889,299.7765L3.3250207813798838,299.77725L3.4912718204488775,299.7795L3.657522859517872,299.78024999999997L3.8237738985868663,299.79675L3.99002493765586,299.7915L4.156275976724855,299.7825L4.322527015793849,299.78625L4.488778054862843,299.78625L4.655029093931837,299.79900000000004L4.8212801330008315,299.80649999999997L4.987531172069826,299.8125L5.15378221113882,299.80725L5.320033250207814,299.817L5.486284289276807,299.82599999999996L5.652535328345802,299.8275L5.818786367414797,299.808L5.985037406483791,299.81624999999997L6.151288445552785,299.81175L6.317539484621778,299.8155L6.483790523690773,299.81325L6.6500415627597675,299.81175L6.816292601828762,299.808L6.982543640897755,299.81850000000003L7.148794679966749,299.8215L7.315045719035744,299.823L7.4812967581047385,299.829L7.647547797173733,299.83425L7.813798836242726,299.838L7.98004987531172,299.84175L8.146300914380715,299.8365L8.31255195344971,299.8305L8.478802992518704,299.835L8.645054031587698,299.8365L8.811305070656692,299.83574999999996L8.977556109725686,299.835L9.14380714879468,299.83275L9.310058187863675,299.81775L9.476309226932669,299.8125L9.642560266001663,299.82075L9.808811305070657,299.83125L9.975062344139651,299.83125L10.141313383208644,299.832L10.30756442227764,299.8395L10.473815461346634,299.83725L10.640066500415628,299.8425L10.806317539484622,299.84325L10.972568578553615,299.8395L11.13881961762261,299.81175L11.305070656691605,299.814L11.471321695760599,299.81775L11.637572734829593,299.82599999999996L11.803823773898586,299.81775L11.970074812967582,299.81624999999997L12.136325852036576,299.81775L12.30257689110557,299.81850000000003L12.468827930174564,299.81850000000003L12.635078969243557,299.82L12.801330008312553,299.82225L12.967581047381547,299.8275L13.13383208645054,299.82525L13.300083125519535,299.8275L13.466334164588527,299.82825L13.632585203657523,299.83425L13.798836242726518,299.8425L13.96508728179551,299.84325L14.131338320864506,299.8455L14.297589359933498,299.8455L14.463840399002494,299.8485L14.630091438071489,299.853L14.796342477140481,299.85900000000004L14.962593516209477,299.87025L15.12884455527847,299.86575L15.295095594347465,299.86725L15.46134663341646,299.85450000000003L15.627597672485452,299.8455L15.793848711554448,299.85525L15.96009975062344,299.85375L16.126350789692438,299.85375L16.29260182876143,299.8575L16.458852867830423,299.86125L16.62510390689942,299.8575L16.79135494596841,299.862L16.957605985037407,299.862L17.1238570241064,299.8635L17.290108063175396,299.86575L17.45635910224439,299.85975L17.622610141313384,299.86275L17.78886118038238,299.8605L17.955112219451372,299.87475L18.121363258520365,299.8815L18.28761429758936,299.87925L18.453865336658353,299.874L18.62011637572735,299.87025L18.78636741479634,299.874L18.952618453865338,299.87175L19.11886949293433,299.87850000000003L19.285120532003326,299.88L19.45137157107232,299.883L19.617622610141314,299.898L19.783873649210307,299.91375L19.950124688279303,299.89500000000004L20.116375727348295,299.8935L20.282626766417287,299.89875L20.448877805486283,299.89500000000004L20.61512884455528,299.89500000000004L20.781379883624275,299.89425L20.947630922693268,299.88525000000004L21.11388196176226,299.88375L21.280133000831256,299.883L21.44638403990025,299.8755L21.612635078969245,299.8755L21.778886118038237,299.87775L21.94513715710723,299.8815L22.111388196176225,299.892L22.27763923524522,299.88975L22.443890274314214,299.8935L22.61014131338321,299.89575L22.776392352452202,299.892L22.942643391521198,299.88675L23.10889443059019,299.88975L23.275145469659186,299.88975L23.44139650872818,299.8935L23.60764754779717,299.892L23.773898586866167,299.89125L23.940149625935163,299.89425L24.10640066500416,299.89500000000004L24.27265170407315,299.89425L24.438902743142144,299.8965L24.60515378221114,299.8935L24.771404821280132,299.89275L24.93765586034913,299.88675L25.10390689941812,299.89425L25.270157938487113,299.892L25.43640897755611,299.89050000000003L25.602660016625105,299.89275L25.768911055694097,299.89050000000003L25.935162094763093,299.892L26.101413133832086,299.89125L26.26766417290108,299.89425L26.433915211970078,299.8935L26.60016625103907,299.89500000000004L26.766417290108063,299.8935L26.932668329177055,299.89275L27.09891936824605,299.89050000000003L27.265170407315047,299.89125L27.431421446384043,299.89050000000003L27.597672485453035,299.88825L27.763923524522028,299.892L27.93017456359102,299.89275L28.09642560266002,299.89425L28.262676641729012,299.8935L28.428927680798004,299.89425L28.595178719866997,299.89500000000004L28.761429758935993,299.892L28.92768079800499,299.89575L29.09393183707398,299.89125L29.260182876142977,299.89275L29.42643391521197,299.89425L29.592684954280962,299.892L29.75893599334996,299.89275L29.925187032418954,299.89125L30.091438071487946,299.892L30.25768911055694,299.90025L30.423940149625935,299.90025L30.59019118869493,299.90025L30.756442227763927,299.90175L30.92269326683292,299.901L31.08894430590191,299.89725L31.255195344970904,299.90325L31.421446384039903,299.90175L31.587697423108896,299.901L31.75394846217789,299.90325L31.92019950124688,299.90175L32.08645054031587,299.90475000000004L32.252701579384876,299.904L32.418952618453865,299.9055L32.58520365752286,299.904L32.75145469659185,299.90325L32.917705735660846,299.90325L33.08395677472984,299.904L33.25020781379884,299.90475000000004L33.416458852867834,299.907L33.58270989193682,299.9085L33.74896093100582,299.91225L33.915211970074814,299.91225L34.08146300914381,299.91525L34.2477140482128,299.91450000000003L34.413965087281795,299.91450000000003L34.58021612635079,299.9205L34.74646716541979,299.92275L34.91271820448878,299.92125L35.07896924355777,299.919L35.24522028262677,299.91975L35.41147132169576,299.91975L35.57772236076476,299.9205L35.74397339983375,299.9205L35.910224438902745,299.91675L36.076475477971734,299.91675L36.24272651704073,299.9175L36.408977556109726,299.92125L36.57522859517872,299.92275L36.74147963424772,299.925L36.907730673316706,299.92199999999997L37.0739817123857,299.92575L37.2402327514547,299.9265L37.406483790523694,299.92275L37.57273482959268,299.9265L37.73898586866168,299.92725L37.905236907730675,299.9325L38.071487946799664,299.93325L38.23773898586866,299.93325L38.403990024937656,299.93475L38.57024106400665,299.93325L38.73649210307564,299.93100000000004L38.90274314214464,299.93100000000004L39.06899418121363,299.9325L39.23524522028263,299.93025L39.40149625935162,299.91675L39.56774729842061,299.919L39.73399833748961,299.91450000000003L39.900249376558605,299.91L40.0665004156276,299.91225L40.23275145469659,299.91375L40.399002493765586,299.913L40.565253532834575,299.91L40.73150457190358,299.8995L40.89775561097257,299.8995L41.06400665004156,299.89575L41.23025768911056,299.898L41.39650872817955,299.89275L41.56275976724855,299.8935L41.72901080631754,299.87925L41.895261845386536,299.862L42.061512884455524,299.856L42.22776392352452,299.8665L42.394014962593516,299.87850000000003L42.56026600166251,299.8845L42.7265170407315,299.89425L42.8927680798005,299.88L43.05901911886949,299.88675L43.22527015793849,299.88599999999997L43.391521197007485,299.88525000000004L43.557772236076474,299.8815L43.72402327514547,299.88599999999997L43.89027431421446,299.87775L44.05652535328346,299.87850000000003L44.22277639235245,299.88225L44.38902743142145,299.88L44.55527847049044,299.87925L44.72152950955943,299.87624999999997L44.88778054862843,299.87475L45.05403158769742,299.8725L45.22028262676642,299.8515L45.38653366583541,299.85225L45.552784704904404,299.8425L45.7190357439734,299.84325L45.885286783042396,299.8425L46.051537822111385,299.84325L46.21778886118038,299.83574999999996L46.38403990024938,299.85975L46.55029093931837,299.8665L46.71654197838737,299.8605L46.88279301745636,299.84925L47.049044056525354,299.8425L47.21529509559434,299.847L47.381546134663346,299.8395L47.547797173732334,299.85075L47.71404821280133,299.85525L47.880299251870326,299.85675L48.046550290939315,299.85675L48.21280133000832,299.85675L48.37905236907731,299.85450000000003L48.5453034081463,299.856L48.71155444721529,299.85825L48.87780548628429,299.85825L49.044056525353284,299.85375L49.21030756442228,299.84775L49.37655860349127,299.84925L49.542809642560265,299.84175L49.70906068162926,299.85L49.87531172069826,299.85450000000003L50.041562759767245,299.8605L50.20781379883624,299.87175L50.374064837905244,299.865L50.540315876974226,299.86725L50.70656691604323,299.87325L50.87281795511222,299.8695L51.039068994181214,299.8725L51.20532003325021,299.862L51.3715710723192,299.8665L51.537822111388195,299.85900000000004L51.704073150457184,299.85900000000004L51.87032418952619,299.85975L52.03657522859518,299.85825L52.20282626766417,299.85900000000004L52.36907730673317,299.862L52.53532834580216,299.86275L52.70157938487115,299.862L52.867830423940156,299.86875000000003L53.034081463009144,299.871L53.20033250207814,299.87025L53.36658354114713,299.868L53.532834580216125,299.87025L53.69908561928513,299.874L53.86533665835411,299.874L54.03158769742311,299.8815L54.1978387364921,299.87850000000003L54.3640897755611,299.88L54.530340814630094,299.877L54.69659185369908,299.88L54.862842892768086,299.883L55.02909393183707,299.8815L55.19534497090607,299.88375L55.36159600997507,299.889L55.527847049044055,299.8875L55.69409808811305,299.8995L55.86034912718204,299.90175L56.026600166251036,299.89575L56.19285120532004,299.89125L56.35910224438903,299.89725L56.525353283458024,299.8965L56.69160432252701,299.904L56.85785536159601,299.90325L57.02410640066501,299.90025L57.190357439733994,299.90325L57.356608478803,299.901L57.522859517871986,299.90175L57.68911055694098,299.90325L57.85536159600998,299.90325L58.02161263507897,299.90475000000004L58.18786367414796,299.9055L58.35411471321695,299.9085L58.520365752285954,299.90625L58.68661679135495,299.9025L58.85286783042394,299.901L59.019118869492935,299.9025L59.185369908561924,299.90175L59.35162094763092,299.9025L59.51787198669992,299.90325L59.68412302576891,299.90175L59.85037406483791,299.90475000000004L60.0166251039069,299.9055L60.18287614297589,299.90625L60.349127182044896,299.9055L60.51537822111388,299.907L60.68162926018288,299.90625L60.84788029925187,299.90475000000004L61.014131338320865,299.9055L61.18038237738986,299.9055L61.34663341645885,299.9025L61.51288445552785,299.9055L61.679135494596835,299.907L61.84538653366584,299.907L62.011637572734834,299.9085L62.17788861180382,299.90775L62.34413965087282,299.9085L62.51039068994181,299.907L62.676641729010804,299.90925L62.84289276807981,299.90775L63.009143807148796,299.9085L63.17539484621779,299.90775L63.34164588528678,299.90925L63.50789692435578,299.9115L63.67414796342478,299.91225L63.84039900249376,299.90925L64.00665004156276,299.90925L64.17290108063175,299.91075L64.33915211970074,299.91075L64.50540315876975,299.91075L64.67165419783873,299.91L64.83790523690773,299.91075L65.00415627597673,299.90925L65.17040731504572,299.91L65.33665835411472,299.91L65.5029093931837,299.90925L65.66916043225271,299.90925L65.83541147132169,299.91075L66.00166251039069,299.91075L66.16791354945968,299.9115L66.33416458852868,299.91225L66.50041562759768,299.9115L66.66666666666666,299.91375L66.83291770573567,299.91450000000003L66.99916874480466,299.913L67.16541978387365,299.913L67.33167082294264,299.9115L67.49792186201164,299.9055L67.66417290108063,299.89425L67.83042394014963,299.88675L67.99667497921862,299.89725L68.16292601828762,299.89425L68.3291770573566,299.88975L68.4954280964256,299.883L68.66167913549461,299.88825L68.82793017456359,299.89050000000003L68.99418121363259,299.89425L69.16043225270158,299.89125L69.32668329177058,299.898L69.49293433083957,299.89875L69.65918536990856,299.90775L69.82543640897757,299.90625L69.99168744804655,299.9025L70.15793848711554,299.9025L70.32418952618454,299.9025L70.49044056525354,299.90625L70.65669160432253,299.90175L70.82294264339151,299.90025L70.98919368246051,299.89875L71.15544472152952,299.9025L71.3216957605985,299.90175L71.4879467996675,299.90175L71.6541978387365,299.904L71.82044887780549,299.9025L71.98669991687449,299.904L72.15295095594347,299.9025L72.31920199501248,299.901L72.48545303408146,299.90025L72.65170407315046,299.9025L72.81795511221945,299.9025L72.98420615128845,299.904L73.15045719035744,299.90475000000004L73.31670822942642,299.9025L73.48295926849543,299.90325L73.64921030756443,299.90325L73.81546134663341,299.9025L73.98171238570241,299.904L74.1479634247714,299.90025L74.3142144638404,299.898L74.4804655029094,299.8935L74.64671654197839,299.89575L74.81296758104739,299.8875L74.97921862011637,299.8935L75.14546965918537,299.89275L75.31172069825436,299.89125L75.47797173732336,299.8875L75.64422277639235,299.8875L75.81047381546135,299.88375L75.97672485453035,299.88375L76.14297589359933,299.88525000000004L76.30922693266832,299.89275L76.47547797173732,299.89275L76.64172901080632,299.8935L76.80798004987531,299.88975L76.9742310889443,299.88975L77.1404821280133,299.88975L77.3067331670823,299.89575L77.47298420615128,299.89125L77.63923524522028,299.89575L77.80548628428927,299.88375L77.97173732335827,299.88525000000004L78.13798836242727,299.88675L78.30423940149626,299.8845L78.47049044056526,299.88675L78.63674147963424,299.89050000000003L78.80299251870323,299.892L78.96924355777224,299.89725L79.13549459684123,299.89875L79.30174563591022,299.89575L79.46799667497922,299.8815L79.63424771404821,299.865L79.80049875311721,299.87475L79.96674979218619,299.87175L80.1330008312552,299.865L80.29925187032418,299.86725L80.46550290939318,299.86875000000003L80.63175394846218,299.88825L80.79800498753117,299.88375L80.96425602660017,299.88599999999997L81.13050706566915,299.88675L81.29675810473816,299.889L81.46300914380716,299.874L81.62926018287614,299.87775L81.79551122194513,299.874L81.96176226101413,299.871L82.12801330008313,299.85525L82.29426433915212,299.841L82.46051537822112,299.733L82.62676641729011,299.65875L82.7930174563591,299.742L82.95926849542809,299.76300000000003L83.1255195344971,299.80649999999997L83.29177057356608,299.79225L83.45802161263508,299.7975L83.62427265170408,299.8035L83.79052369077307,299.80125L83.95677472984207,299.78475L84.12302576891105,299.77125L84.28927680798004,299.77049999999997L84.45552784704904,299.78625L84.62177888611804,299.78475L84.78802992518703,299.781L84.95428096425603,299.7765L85.12053200332502,299.7825L85.286783042394,299.77425L85.453034081463,299.77875L85.61928512053201,299.77425L85.785536159601,299.7765L85.95178719866999,299.781L86.11803823773899,299.7915L86.28428927680798,299.7915L86.45054031587698,299.77725L86.61679135494596,299.78175L86.78304239401497,299.78625L86.94929343308395,299.78775L87.11554447215295,299.78999999999996L87.28179551122194,299.7915L87.44804655029094,299.79825L87.61429758935994,299.80575L87.78054862842892,299.80875000000003L87.94679966749793,299.80949999999996L88.11305070656692,299.8125L88.2793017456359,299.81325L88.4455527847049,299.817L88.6118038237739,299.81624999999997L88.7780548628429,299.8215L88.94430590191189,299.832L89.11055694098089,299.83425L89.27680798004988,299.82525L89.44305901911886,299.835L89.60931005818786,299.8275L89.77556109725685,299.81925L89.94181213632585,299.81925L90.10806317539485,299.82225L90.27431421446383,299.81624999999997L90.44056525353284,299.8215L90.60681629260183,299.82675L90.77306733167082,299.82675L90.93931837073981,299.83275L91.10556940980881,299.84325L91.2718204488778,299.835L91.4380714879468,299.8395L91.6043225270158,299.841L91.77057356608479,299.83725L91.93682460515377,299.841L92.10307564422277,299.84024999999997L92.26932668329178,299.8395L92.43557772236076,299.84024999999997L92.60182876142976,299.838L92.76807980049875,299.83875L92.93433083956775,299.80949999999996L93.10058187863675,299.8245L93.26683291770573,299.82525L93.43308395677474,299.832L93.59933499584372,299.8305L93.76558603491272,299.83425L93.93183707398171,299.835L94.09808811305071,299.8395L94.2643391521197,299.838L94.43059019118868,299.841L94.5968412302577,299.84175L94.76309226932669,299.844L94.92934330839567,299.847L95.09559434746467,299.8395L95.26184538653366,299.82825L95.42809642560266,299.8245L95.59434746467166,299.8275L95.76059850374065,299.82525L95.92684954280965,299.8275L96.09310058187863,299.8305L96.25935162094763,299.83125L96.42560266001664,299.8335L96.59185369908562,299.8305L96.75810473815461,299.8305L96.92435577722361,299.832L97.0906068162926,299.832L97.2568578553616,299.82975L97.42310889443058,299.82975L97.58935993349958,299.8275L97.75561097256858,299.832L97.92186201163757,299.829L98.08811305070657,299.8305L98.25436408977556,299.8305L98.42061512884456,299.8305L98.58686616791354,299.82825L98.75311720698254,299.829L98.91936824605155,299.83125L99.08561928512053,299.83425L99.25187032418953,299.83125L99.41812136325852,299.83275L99.58437240232752,299.8335L99.75062344139651,299.832L99.9168744804655,299.835L100.08312551953449,299.832L100.24937655860349,299.82375L100.41562759767248,299.823L100.58187863674148,299.82675L100.74812967581049,299.82675L100.91438071487946,299.82825L101.08063175394845,299.8305L101.24688279301746,299.829L101.41313383208646,299.83125L101.57938487115545,299.829L101.74563591022444,299.8305L101.91188694929343,299.832L102.07813798836243,299.83125L102.24438902743142,299.832L102.41064006650042,299.832L102.5768911055694,299.829L102.7431421446384,299.8275L102.9093931837074,299.82225L103.07564422277639,299.8215L103.2418952618454,299.8215L103.40814630091437,299.82675L103.57439733998336,299.8245L103.74064837905237,299.8275L103.90689941812137,299.8215L104.07315045719037,299.82225L104.23940149625935,299.82225L104.40565253532834,299.823L104.57190357439734,299.82L104.73815461346634,299.8155L104.90440565253533,299.80125L105.07065669160431,299.805L105.23690773067331,299.81025L105.4031587697423,299.7975L105.56940980881132,299.7765L105.73566084788031,299.76L105.90191188694928,299.76525L106.06816292601829,299.74875L106.23441396508728,299.75925L106.40066500415628,299.757L106.56691604322528,299.7465L106.73316708229426,299.75775L106.89941812136325,299.76975L107.06566916043225,299.8005L107.23192019950125,299.78999999999996L107.39817123857026,299.78925L107.56442227763922,299.787L107.73067331670822,299.78625L107.89692435577723,299.784L108.06317539484623,299.77425L108.22942643391522,299.778L108.3956774729842,299.772L108.5619285120532,299.7735L108.7281795511222,299.77049999999997L108.89443059019119,299.7885L109.06068162926019,299.78325L109.22693266832917,299.78475L109.39318370739817,299.787L109.55943474646716,299.79375L109.72568578553617,299.79225L109.89193682460517,299.7975L110.05818786367414,299.796L110.22443890274315,299.79974999999996L110.39068994181214,299.80125L110.55694098088114,299.80275L110.72319201995013,299.8035L110.88944305901911,299.802L111.05569409808811,299.8035L111.2219451371571,299.80275L111.3881961762261,299.811L111.5544472152951,299.81624999999997L111.72069825436408,299.817L111.88694929343308,299.82225L112.05320033250207,299.82225L112.21945137157108,299.81175L112.38570241064008,299.81325L112.55195344970905,299.81624999999997L112.71820448877806,299.82L112.88445552784705,299.82225L113.05070656691605,299.8215L113.21695760598504,299.8215L113.38320864505403,299.82075L113.54945968412302,299.8275L113.71571072319202,299.83275L113.88196176226101,299.8455L114.04821280133002,299.8395L114.21446384039899,299.83875L114.38071487946799,299.8365L114.546965918537,299.82675L114.713216957606,299.802L114.87946799667499,299.82225L115.04571903574397,299.82225L115.21197007481297,299.82075L115.37822111388196,299.82375L115.54447215295096,299.82075L115.71072319201996,299.82075L115.87697423108894,299.81624999999997L116.04322527015793,299.8215L116.20947630922693,299.80649999999997L116.37572734829592,299.81475L116.54197838736494,299.81475L116.7082294264339,299.82525L116.8744804655029,299.8215L117.04073150457191,299.82599999999996L117.2069825436409,299.82825L117.3732335827099,299.82975L117.53948462177888,299.82675L117.70573566084788,299.82825L117.87198669991687,299.82675L118.03823773898587,299.832L118.20448877805487,299.82825L118.37073981712385,299.83125L118.53699085619284,299.82525L118.70324189526184,299.82375L118.86949293433085,299.82599999999996L119.03574397339985,299.82375L119.20199501246881,299.823L119.36824605153782,299.82375L119.53449709060682,299.823L119.70074812967582,299.81925L119.86699916874481,299.81850000000003L120.0332502078138,299.829L120.19950124688279,299.8275L120.36575228595179,299.82975L120.53200332502078,299.8305L120.69825436408979,299.8305L120.86450540315876,299.83125L121.03075644222776,299.8305L121.19700748129677,299.82525L121.36325852036576,299.8125L121.52950955943476,299.823L121.69576059850374,299.82L121.86201163757273,299.823L122.02826267664173,299.82599999999996L122.19451371571073,299.82675L122.36076475477972,299.829L122.5270157938487,299.832L122.6932668329177,299.8305L122.8595178719867,299.83125L123.0257689110557,299.82825L123.1920199501247,299.829L123.35827098919367,299.82825L123.52452202826268,299.82675L123.69077306733168,299.82375L123.85702410640067,299.82525L124.02327514546967,299.8275L124.18952618453865,299.8245L124.35577722360765,299.82825L124.52202826267664,299.82525L124.68827930174564,299.83275L124.85453034081463,299.829L125.02078137988362,299.83125L125.18703241895261,299.829L125.35328345802161,299.829L125.51953449709062,299.8275L125.68578553615961,299.83125L125.85203657522858,299.82975L126.01828761429759,299.82975L126.18453865336659,299.832L126.35078969243558,299.83275L126.51704073150458,299.83425L126.68329177057356,299.83425L126.84954280964256,299.83574999999996L127.01579384871155,299.83425L127.18204488778055,299.8365L127.34829592684956,299.83275L127.51454696591853,299.83425L127.68079800498752,299.83574999999996L127.84704904405653,299.83574999999996L128.01330008312553,299.838L128.1795511221945,299.83725L128.3458021612635,299.838L128.5120532003325,299.83275L128.67830423940148,299.83275L128.8445552784705,299.835L129.0108063175395,299.83425L129.17705735660846,299.835L129.34330839567747,299.83725L129.50955943474648,299.83574999999996L129.67581047381546,299.8335L129.84206151288447,299.83425L130.00831255195345,299.82075L130.17456359102243,299.82825L130.34081463009144,299.82825L130.50706566916043,299.829L130.67331670822944,299.82975L130.83956774729842,299.835L131.0058187863674,299.83125L131.1720698254364,299.83275L131.33832086450542,299.8335L131.5045719035744,299.83425L131.67082294264338,299.832L131.8370739817124,299.8365L132.00332502078138,299.835L132.16957605985039,299.83574999999996L132.33582709891937,299.8335L132.50207813798835,299.832L132.66832917705736,299.83574999999996L132.83458021612634,299.8365L133.00083125519535,299.835L133.16708229426436,299.83574999999996L133.33333333333331,299.83725L133.49958437240232,299.8365L133.66583541147133,299.83725L133.83208645054032,299.8395L133.99833748960933,299.8395L134.1645885286783,299.838L134.3308395677473,299.83725L134.4970906068163,299.83725L134.66334164588528,299.83875L134.8295926849543,299.841L134.99584372402327,299.8395L135.16209476309226,299.83875L135.32834580216127,299.841L135.49459684123028,299.83875L135.66084788029926,299.83275L135.82709891936824,299.8335L135.99334995843725,299.838L136.15960099750623,299.83725L136.32585203657524,299.83875L136.49210307564422,299.83725L136.6583541147132,299.83574999999996L136.82460515378222,299.8365L136.9908561928512,299.8365L137.1571072319202,299.83574999999996L137.32335827098922,299.82975L137.48960931005817,299.83125L137.65586034912718,299.823L137.8221113881962,299.8245L137.98836242726517,299.8275L138.15461346633418,299.82525L138.32086450540316,299.82975L138.48711554447215,299.83275L138.65336658354116,299.829L138.81961762261014,299.829L138.98586866167915,299.83275L139.15211970074813,299.829L139.3183707398171,299.8305L139.48462177888612,299.82975L139.65087281795513,299.823L139.81712385702411,299.82825L139.9833748960931,299.835L140.14962593516208,299.83425L140.3158769742311,299.83425L140.4821280133001,299.82825L140.64837905236908,299.8305L140.81463009143806,299.84625L140.98088113050707,299.844L141.14713216957605,299.84325L141.31338320864506,299.84325L141.47963424771405,299.8455L141.64588528678303,299.84475000000003L141.81213632585204,299.83875L141.97838736492102,299.844L142.14463840399003,299.84175L142.31088944305904,299.84325L142.477140482128,299.844L142.643391521197,299.84475000000003L142.809642560266,299.844L142.975893599335,299.8485L143.142144638404,299.847L143.308395677473,299.844L143.47464671654197,299.847L143.64089775561098,299.84325L143.80714879467996,299.847L143.97339983374897,299.844L144.13965087281795,299.8455L144.30590191188693,299.84325L144.47215295095594,299.84175L144.63840399002495,299.84024999999997L144.80465502909394,299.84175L144.97090606816292,299.84175L145.13715710723193,299.8395L145.3034081463009,299.844L145.46965918536992,299.84175L145.6359102244389,299.847L145.80216126350788,299.844L145.9684123025769,299.8425L146.13466334164588,299.844L146.3009143807149,299.844L146.4671654197839,299.84325L146.63341645885285,299.84325L146.79966749792186,299.84475000000003L146.96591853699087,299.84325L147.13216957605985,299.85225L147.29842061512886,299.844L147.46467165419784,299.84475000000003L147.63092269326683,299.844L147.79717373233584,299.8485L147.96342477140482,299.844L148.12967581047383,299.844L148.2959268495428,299.85L148.4621778886118,299.84775L148.6284289276808,299.844L148.7946799667498,299.84625L148.9609310058188,299.84775L149.12718204488777,299.84625L149.29343308395678,299.84175L149.45968412302577,299.84625L149.62593516209478,299.8455L149.79218620116376,299.8425L149.95843724023274,299.84325L150.12468827930175,299.844L150.29093931837073,299.84175L150.45719035743974,299.847L150.62344139650872,299.84175L150.7896924355777,299.82825L150.95594347464672,299.81475L151.12219451371573,299.8215L151.2884455527847,299.81775L151.4546965918537,299.82375L151.6209476309227,299.83275L151.78719866999168,299.83574999999996L151.9534497090607,299.82375L152.11970074812967,299.823L152.28595178719866,299.8155L152.45220282626767,299.81775L152.61845386533665,299.81850000000003L152.78470490440566,299.802L152.95095594347464,299.7765L153.11720698254362,299.796L153.28345802161263,299.80949999999996L153.44970906068164,299.79525L153.61596009975062,299.796L153.78221113881963,299.772L153.9484621778886,299.75399999999996L154.1147132169576,299.74875L154.2809642560266,299.63325L154.4472152950956,299.67975L154.6134663341646,299.676L154.77971737323358,299.6685L154.94596841230256,299.66249999999997L155.11221945137157,299.7015L155.27847049044055,299.676L155.44472152950956,299.71425L155.61097256857855,299.7L155.77722360764753,299.70750000000004L155.94347464671654,299.6895L156.10972568578555,299.68125000000003L156.27597672485453,299.6805L156.4422277639235,299.6865L156.60847880299252,299.6595L156.7747298420615,299.65575L156.9409808811305,299.65575L157.1072319201995,299.664L157.27348295926848,299.66775L157.4397339983375,299.66175000000004L157.60598503740647,299.652L157.77223607647548,299.6085L157.9384871155445,299.61375L158.10473815461344,299.60475L158.27098919368245,299.592L158.43724023275146,299.526L158.60349127182045,299.4915L158.76974231088946,299.4495L158.93599334995844,299.4405L159.10224438902742,299.4855L159.26849542809643,299.5425L159.4347464671654,299.4915L159.60099750623442,299.442L159.7672485453034,299.37L159.93349958437238,299.12325L160.0997506234414,299.02125L160.2660016625104,298.85925L160.4322527015794,299.07075000000003L160.59850374064837,299.07075000000003L160.76475477971738,299.091L160.93100581878636,299.11275L161.09725685785537,299.112L161.26350789692435,299.0445L161.42975893599333,299.154L161.59600997506234,299.20574999999997L161.76226101413133,299.0115L161.92851205320034,298.86899999999997L162.09476309226935,298.8615L162.2610141313383,298.575L162.4272651704073,297.7035L162.59351620947632,297.44624999999996L162.7597672485453,297.32849999999996L162.9260182876143,297.25575000000003L163.0922693266833,297.7545L163.25852036575228,298.182L163.42477140482129,298.09425L163.59102244389027,298.06575L163.75727348295928,297.951L163.92352452202826,298.03275L164.08977556109724,298.00725L164.25602660016625,297.84975000000003L164.42227763923526,297.7305L164.58852867830424,297.56175L164.75477971737322,297.61575L164.92103075644224,297.09524999999996L165.08728179551122,297.19425L165.25353283458023,297.5235L165.4197838736492,297.31874999999997L165.5860349127182,297.41024999999996L165.7522859517872,297.51525000000004L165.91853699085618,297.29925L166.0847880299252,297.56025L166.2510390689942,297.51525000000004L166.41729010806316,297.681L166.58354114713217,297.71775L166.74979218620115,297.62775L166.91604322527016,297.5085L167.08229426433917,297.5775L167.24854530340815,297.64425L167.41479634247713,297.5865L167.58104738154614,297.65625L167.74729842061512,297.672L167.91354945968413,297.64275000000004L168.07980049875312,297.64875L168.2460515378221,297.77925L168.4123025768911,297.9375L168.5785536159601,298.03275L168.7448046550291,297.90525L168.91105569409808,298.008L169.07730673316706,298.0485L169.24355777223607,298.01625L169.40980881130508,298.13925L169.57605985037407,298.10025L169.74231088944305,298.1115L169.90856192851206,297.9645L170.07481296758104,298.023L170.24106400665005,298.20225L170.40731504571903,298.17L170.573566084788,298.2525L170.73981712385702,298.536L170.906068162926,298.66575L171.07231920199501,298.5465L171.23857024106402,298.63275L171.40482128013298,298.73925L171.571072319202,298.887L171.737323358271,299.01975L171.90357439733998,298.86L172.069825436409,298.602L172.23607647547797,298.73325L172.40232751454695,298.54875L172.56857855361596,298.548L172.73482959268495,298.42875L172.90108063175396,298.521L173.06733167082294,298.515L173.23358270989192,298.67025L173.39983374896093,298.6425L173.56608478802994,298.608L173.73233582709892,298.6635L173.8985868661679,298.674L174.0648379052369,298.71075L174.2310889443059,298.7115L174.3973399833749,298.656L174.5635910224439,298.659L174.72984206151287,298.65375L174.89609310058188,298.635L175.06234413965086,298.43475L175.22859517871987,298.56825000000003L175.39484621778888,298.53825L175.56109725685783,298.52925L175.72734829592684,298.54725L175.89359933499586,298.57800000000003L176.05985037406484,298.59L176.22610141313385,298.608L176.39235245220283,298.64475L176.5586034912718,298.6785L176.72485453034082,298.6965L176.8911055694098,298.6695L177.0573566084788,298.7175L177.2236076475478,298.74150000000003L177.38985868661678,298.74150000000003L177.5561097256858,298.71975000000003L177.7223607647548,298.716L177.88861180382378,298.713L178.05486284289276,298.701L178.22111388196177,298.638L178.38736492103075,298.65749999999997L178.55361596009976,298.6665L178.71986699916874,298.68L178.88611803823773,298.63124999999997L179.05236907730674,298.59975L179.21862011637572,298.42125000000004L179.38487115544473,298.452L179.5511221945137,298.09275L179.7173732335827,298.3305L179.8836242726517,298.38525L180.0498753117207,298.66049999999996L180.2161263507897,298.56899999999996L180.3823773898587,298.48575L180.54862842892766,298.554L180.71487946799667,298.803L180.88113050706568,298.824L181.04738154613466,298.95375L181.21363258520367,298.90275L181.37988362427265,298.91999999999996L181.54613466334163,298.9515L181.71238570241064,299.3595L181.87863674147962,299.35125L182.04488778054863,299.34975000000003L182.21113881961762,299.36025L182.3773898586866,299.28975L182.5436408977556,299.3325L182.70989193682462,299.3535L182.8761429758936,299.43375L183.04239401496258,299.421L183.2086450540316,299.28450000000004L183.37489609310057,299.331L183.54114713216958,299.14425L183.70739817123857,299.13675L183.87364921030755,299.12025L184.03990024937656,299.19L184.20615128844554,299.18850000000003L184.37240232751455,299.14125L184.53865336658356,299.187L184.7049044056525,299.18625L184.87115544472152,299.169L185.03740648379053,299.23199999999997L185.20365752285952,299.24925L185.36990856192853,299.208L185.5361596009975,299.2005L185.7024106400665,299.208L185.8686616791355,299.25675L186.03491271820448,299.223L186.2011637572735,299.21549999999996L186.36741479634247,299.2035L186.53366583541145,299.2005L186.69991687448046,299.1675L186.86616791354948,299.1705L187.03241895261846,299.127L187.19866999168744,299.19975L187.36492103075645,299.21475L187.53117206982543,299.202L187.69742310889444,299.2125L187.86367414796342,299.24475L188.0299251870324,299.23275L188.19617622610141,299.238L188.3624272651704,299.181L188.5286783042394,299.208L188.69492934330842,299.21175L188.86118038237737,299.211L189.02743142144638,299.22225L189.1936824605154,299.12025L189.35993349958437,299.13675L189.52618453865338,299.157L189.69243557772236,299.1465L189.85868661679135,299.13675L190.02493765586036,299.15925L190.19118869492934,299.10825L190.35743973399835,299.1135L190.52369077306733,299.1345L190.6899418121363,299.11725L190.85619285120532,299.0835L191.02244389027433,298.93875L191.1886949293433,299.12775L191.3549459684123,299.09925L191.5211970074813,299.2215L191.6874480465503,299.09175L191.8536990856193,299.112L192.01995012468828,298.99575000000004L192.18620116375726,298.9575L192.35245220282627,299.01525000000004L192.51870324189525,298.97025L192.68495428096426,298.968L192.85120532003327,298.9545L193.01745635910223,298.95825L193.18370739817124,298.63275L193.34995843724022,298.58175L193.51620947630923,298.56899999999996L193.68246051537824,298.446L193.84871155444722,298.4805L194.0149625935162,298.509L194.1812136325852,298.22775L194.3474646716542,298.44L194.5137157107232,298.44075000000004L194.6799667497922,298.389L194.84621778886117,298.38824999999997L195.01246882793018,298.33275L195.17871986699916,298.15274999999997L195.34497090606817,298.14075L195.51122194513715,298.00275L195.67747298420613,297.96L195.84372402327514,297.91575L196.00997506234415,298.03725L196.17622610141314,298.08975L196.34247714048212,297.9015L196.50872817955113,297.522L196.6749792186201,297.40425L196.84123025768912,297.21825L197.0074812967581,297.1785L197.17373233582708,295.55025L197.3399833748961,295.512L197.50623441396507,295.17525L197.67248545303408,295.7505L197.8387364921031,295.00425L198.00498753117205,294.43125L198.17123857024106,295.4595L198.33748960931007,294.55575L198.50374064837905,293.5635L198.66999168744806,293.30175L198.83624272651704,292.94175L199.00249376558602,293.346L199.16874480465503,293.6355L199.33499584372402,292.95675L199.50124688279303,294.105L199.667497921862,293.271L199.833748960931,293.31825L200,293.14125L200.16625103906898,293.01L200.332502078138,292.767L200.49875311720697,290.87475L200.66500415627598,288.85275L200.83125519534497,287.184L200.99750623441395,288.71625L201.16375727348296,289.935L201.33000831255194,290.1735L201.49625935162098,291.39825L201.66251039068993,290.208L201.8287614297589,290.23275L201.99501246882795,291.237L202.1612635078969,292.60725L202.32751454696594,294.88349999999997L202.49376558603493,294.264L202.66001662510388,294.02325L202.82626766417292,294.09675L202.9925187032419,293.664L203.1587697423109,294.65175L203.3250207813799,294.9495L203.49127182044887,294.99525L203.65752285951788,294.68775L203.82377389858686,294.24975L203.99002493765587,294.57225L204.15627597672486,294.47025L204.32252701579384,294.40125L204.48877805486285,294.77475L204.65502909393183,295.482L204.82128013300084,295.4925L204.98753117206982,296.22825L205.1537822111388,296.64375L205.3200332502078,296.127L205.4862842892768,296.70075L205.65253532834583,297.35025L205.8187863674148,296.72925L205.98503740648377,296.77725L206.15128844555278,296.57550000000003L206.31753948462176,296.25L206.4837905236908,296.25825L206.65004156275978,296.283L206.81629260182874,295.896L206.98254364089777,295.7715L207.14879467996673,294.9525L207.31504571903577,294.48975L207.48129675810475,294.72450000000003L207.64754779717373,294.71325L207.81379883624274,295.182L207.98004987531172,294.97725L208.14630091438073,294.6795L208.3125519534497,295.06425L208.4788029925187,295.30575L208.6450540315877,295.014L208.8113050706567,295.257L208.9775561097257,295.3935L209.14380714879468,295.24575L209.31005818786366,295.28175L209.47630922693267,295.48650000000004L209.64256026600165,295.33875L209.80881130507066,295.8885L209.97506234413964,296.02425L210.14131338320863,295.87350000000004L210.30756442227764,296.0865L210.47381546134662,296.5425L210.64006650041566,296.982L210.8063175394846,296.98125L210.9725685785536,296.89050000000003L211.13881961762263,297.02025L211.30507065669158,296.8425L211.47132169576062,296.976L211.6375727348296,297.03L211.80382377389856,297.357L211.9700748129676,297.348L212.13632585203658,297.3675L212.3025768911056,297.52575L212.46882793017457,297.6075L212.63507896924355,297.41999999999996L212.80133000831256,297.26175L212.96758104738154,297.25575000000003L213.13383208645055,297.354L213.30008312551954,297.33L213.46633416458852,297.3075L213.63258520365753,297.37125L213.7988362427265,297.53325L213.96508728179552,297.64125L214.1313383208645,297.64425L214.29758935993348,297.87975L214.4638403990025,297.92775L214.63009143807147,297.88575000000003L214.7963424771405,297.96075L214.96259351620947,297.90225000000004L215.12884455527845,297.765L215.2950955943475,297.9225L215.46134663341644,297.9645L215.62759767248548,297.9975L215.79384871155446,297.8985L215.9600997506234,297.86775L216.12635078969245,297.92775L216.29260182876143,297.71775L216.45885286783044,297.453L216.62510390689943,297.1515L216.7913549459684,297.00374999999997L216.95760598503742,296.8875L217.1238570241064,296.57175L217.2901080631754,296.56125L217.4563591022444,296.442L217.62261014131337,295.941L217.78886118038238,295.632L217.95511221945137,295.58025L218.12136325852038,295.94025L218.28761429758936,295.84575L218.45386533665834,295.8885L218.62011637572735,295.65000000000003L218.78636741479633,296.18025L218.95261845386534,295.77975L219.11886949293432,295.9335L219.2851205320033,295.98224999999996L219.45137157107234,295.90575L219.6176226101413,296.09250000000003L219.78387364921034,296.142L219.9501246882793,296.04525L220.11637572734827,295.76925L220.2826267664173,296.04825L220.4488778054863,296.115L220.6151288445553,296.2725L220.78137988362428,296.38725L220.94763092269324,296.02275L221.11388196176227,296.18025L221.28013300083126,296.34749999999997L221.44638403990027,296.7285L221.61263507896925,296.64525000000003L221.77888611803823,296.75325000000004L221.94513715710724,296.65500000000003L222.11138819617622,296.61375L222.27763923524523,296.71125L222.4438902743142,296.859L222.6101413133832,296.98725L222.7763923524522,296.7855L222.9426433915212,296.68275L223.1088944305902,296.79675L223.27514546965918,297.11175L223.44139650872816,297.30675L223.60764754779717,297.37575L223.77389858686615,297.36449999999996L223.9401496259352,297.40275L224.10640066500414,297.432L224.27265170407313,297.58050000000003L224.43890274314217,297.42225L224.60515378221112,297.4845L224.77140482128016,297.4515L224.93765586034914,297.43275L225.1039068994181,297.3315L225.27015793848713,297.2325L225.4364089775561,297.351L225.60266001662512,297.2595L225.7689110556941,297.15975000000003L225.9351620947631,297.201L226.1014131338321,297.25575000000003L226.26766417290108,297.30525L226.4339152119701,297.6135L226.60016625103907,297.5745L226.76641729010805,297.68325L226.93266832917706,297.88725L227.09891936824604,297.792L227.26517040731505,297.82425L227.43142144638404,297.82875L227.59767248545302,297.84525L227.76392352452203,297.72975L227.930174563591,297.72524999999996L228.09642560266005,297.73425000000003L228.262676641729,297.759L228.42892768079798,297.999L228.59517871986702,298.01925L228.76142975893598,298.1175L228.927680798005,298.13625L229.093931837074,298.1415L229.26018287614295,298.17225L229.426433915212,298.23225L229.59268495428097,298.17975L229.75893599334998,298.12575000000004L229.92518703241896,298.13325L230.09143807148794,297.97275L230.25768911055695,298.0215L230.42394014962593,297.99L230.59019118869494,298.05075L230.75644222776393,298.05225L230.9226932668329,298.01625L231.08894430590192,298.04175L231.2551953449709,298.04775L231.4214463840399,298.19175L231.5876974231089,298.18125000000003L231.75394846217787,298.27049999999997L231.92019950124688,298.251L232.08645054031587,298.2285L232.2527015793849,298.215L232.41895261845386,297.8595L232.58520365752284,297.579L232.75145469659185,297.216L232.91770573566083,297.117L233.08395677472987,297.4425L233.25020781379885,297.5475L233.4164588528678,297.4065L233.58270989193684,297.42674999999997L233.7489609310058,297.285L233.91521197007484,297.34275L234.08146300914382,297.45525000000004L234.2477140482128,297.43649999999997L234.4139650872818,297.45L234.5802161263508,297.51975L234.7464671654198,297.54525L234.91271820448878,297.79125L235.07896924355776,297.63L235.24522028262678,297.7905L235.41147132169576,297.81149999999997L235.57772236076477,297.94125L235.74397339983375,297.87225L235.91022443890273,297.91575L236.07647547797174,297.99675L236.24272651704072,298.18874999999997L236.40897755610973,298.08375L236.57522859517871,298.206L236.7414796342477,298.197L236.9077306733167,298.197L237.0739817123857,298.25175L237.24023275145473,298.305L237.40648379052368,298.27275000000003L237.57273482959266,298.281L237.7389858686617,298.15875L237.90523690773065,298.2045L238.0714879467997,298.14525000000003L238.23773898586867,298.22325L238.40399002493763,298.182L238.57024106400667,298.26375L238.73649210307565,298.21125L238.90274314214466,298.1805L239.06899418121364,298.2225L239.23524522028262,298.197L239.40149625935163,298.1535L239.5677472984206,298.04475L239.73399833748962,298.0455L239.9002493765586,297.5955L240.0665004156276,296.4045L240.2327514546966,295.2915L240.39900249376558,296.25075L240.5652535328346,296.0505L240.73150457190357,296.04825L240.89775561097255,296.30174999999997L241.06400665004156,296.2425L241.23025768911054,296.01975L241.39650872817958,295.731L241.56275976724854,295.62825L241.72901080631752,294.831L241.89526184538656,295.25325000000004L242.0615128844555,295.15875L242.22776392352455,295.0845L242.39401496259353,295.365L242.56026600166248,295.37624999999997L242.72651704073152,295.10175L242.8927680798005,295.31775L243.05901911886951,295.51425L243.2252701579385,295.79325L243.39152119700748,295.72875L243.5577722360765,295.737L243.72402327514547,295.68149999999997L243.89027431421448,295.57425L244.05652535328346,295.74225L244.22277639235244,295.7355L244.38902743142145,295.72875L244.55527847049044,295.59075L244.72152950955945,295.62675L244.88778054862843,295.60125L245.0540315876974,295.5705L245.22028262676642,295.5435L245.3865336658354,295.632L245.5527847049044,295.722L245.7190357439734,295.76625L245.88528678304237,295.74825L246.0515378221114,295.84125L246.21778886118037,295.8285L246.3840399002494,295.8165L246.55029093931836,295.77375L246.71654197838734,295.836L246.88279301745638,296.25L247.04904405652536,296.06475L247.21529509559437,296.1135L247.38154613466335,296.1315L247.5477971737323,296.0865L247.71404821280134,296.23725L247.88029925187033,296.55075L248.04655029093934,296.7105L248.21280133000832,296.6475L248.3790523690773,296.58675L248.5453034081463,296.61224999999996L248.7115544472153,296.7255L248.8778054862843,296.871L249.04405652535328,297.06675L249.21030756442227,297.21225L249.37655860349128,297.012L249.54280964256026,296.85375L249.70906068162927,296.95275L249.87531172069825,297.11475L250.04156275976723,297.1125L250.20781379883624,297.17699999999996L250.37406483790522,297.16724999999997L250.54031587697426,297.17025L250.70656691604322,297.20025L250.8728179551122,297.243L251.03906899418124,297.2835L251.2053200332502,297.228L251.37157107231923,297.27225000000004L251.5378221113882,297.462L251.70407315045716,297.645L251.8703241895262,297.53625L252.03657522859518,297.6285L252.2028262676642,297.702L252.36907730673317,297.79125L252.53532834580216,297.97875L252.70157938487117,297.9L252.86783042394015,297.9405L253.03408146300916,298.05375L253.20033250207814,298.01775L253.36658354114712,298.1865L253.53283458021613,298.3095L253.6990856192851,298.164L253.86533665835412,298.19100000000003L254.0315876974231,298.22925L254.1978387364921,298.332L254.3640897755611,298.335L254.53034081463008,298.42575L254.69659185369912,298.43475L254.86284289276807,298.3155L255.02909393183705,298.31925L255.1953449709061,298.37624999999997L255.36159600997505,298.3125L255.52784704904408,298.3155L255.69409808811307,298.22175L255.86034912718202,298.353L256.02660016625106,298.365L256.19285120532004,298.42725L256.359102244389,298.42199999999997L256.525353283458,298.41L256.691604322527,298.4235L256.857855361596,298.425L257.024106400665,298.434L257.19035743973404,298.41675L257.35660847880297,298.45125L257.52285951787195,298.4475L257.689110556941,298.41525L257.85536159600997,298.40625L258.021612635079,298.10025L258.187863674148,297.987L258.3541147132169,297.96L258.52036575228595,297.95175L258.68661679135494,298.09125L258.852867830424,298.1235L259.01911886949296,298.0935L259.18536990856194,298.095L259.3516209476309,298.197L259.5178719866999,298.1445L259.68412302576894,298.22700000000003L259.8503740648379,298.1745L260.0166251039069,298.19775L260.1828761429759,298.22475L260.34912718204487,298.2405L260.5153782211139,298.206L260.6816292601829,298.19475L260.84788029925187,298.23L261.01413133832085,298.26375L261.18038237738983,298.26075L261.3466334164589,298.25399999999996L261.51288445552785,298.28625L261.67913549459684,298.293L261.8453865336659,298.3005L262.0116375727348,298.401L262.17788861180384,298.40325L262.3441396508728,298.389L262.5103906899418,298.4295L262.67664172901084,298.36275L262.8428927680798,298.41675L263.0091438071488,298.3965L263.1753948462178,298.4295L263.34164588528677,298.4205L263.5078969243558,298.38525L263.6741479634248,298.41075L263.84039900249377,298.42425000000003L264.00665004156275,298.45725L264.17290108063173,298.46774999999997L264.33915211970077,298.47075L264.50540315876975,298.4115L264.67165419783873,298.43775L264.8379052369077,298.47975L265.0041562759767,298.54200000000003L265.17040731504574,298.55475L265.3366583541147,298.52925L265.5029093931837,298.55625L265.6691604322527,298.563L265.83541147132166,298.548L266.0016625103907,298.572L266.1679135494597,298.57800000000003L266.3341645885287,298.584L266.5004156275977,298.6005L266.66666666666663,298.61625L266.83291770573567,298.533L266.99916874480465,298.53825L267.1654197838737,298.5405L267.33167082294267,298.5705L267.4979218620116,298.5795L267.66417290108063,298.58025L267.8304239401496,298.57725L267.99667497921865,298.56899999999996L268.16292601828764,298.557L268.3291770573566,298.50600000000003L268.4954280964256,298.41450000000003L268.6616791354946,298.44975L268.8279301745636,298.44075000000004L268.9941812136326,298.479L269.1604322527016,298.45799999999997L269.32668329177056,298.43775L269.49293433083955,298.5195L269.6591853699086,298.47749999999996L269.82543640897757,298.48275L269.99168744804655,298.48575L270.15793848711553,298.51800000000003L270.3241895261845,298.5045L270.49044056525355,298.49775L270.65669160432253,298.50075L270.8229426433915,298.51349999999996L270.98919368246055,298.51125L271.1554447215295,298.51275000000004L271.3216957605985,298.50675L271.4879467996675,298.515L271.6541978387365,298.5015L271.8204488778055,298.50075L271.9866999168745,298.5255L272.1529509559435,298.491L272.31920199501246,298.48125L272.48545303408144,298.47075L272.6517040731505,298.464L272.81795511221947,298.44225L272.98420615128845,298.43925L273.15045719035743,298.43775L273.3167082294264,298.43174999999997L273.48295926849545,298.45425L273.64921030756443,298.4595L273.8154613466334,298.461L273.9817123857024,298.452L274.1479634247714,298.4595L274.3142144638404,298.46774999999997L274.4804655029094,298.4595L274.64671654197844,298.43625000000003L274.81296758104736,298.4445L274.97921862011634,298.43475L275.1454696591854,298.44L275.31172069825436,298.44L275.4779717373234,298.15425L275.6442227763924,297.90375L275.8104738154613,297.627L275.97672485453035,297.22724999999997L276.1429758935993,297.3075L276.30922693266837,297.42075L276.47547797173735,297.43649999999997L276.64172901080633,297.71625L276.8079800498753,297.837L276.9742310889443,297.73425000000003L277.14048212801333,297.90825L277.3067331670823,297.858L277.4729842061513,297.846L277.6392352452203,297.8385L277.80548628428926,297.9075L277.9717373233583,297.87375L278.1379883624273,297.89250000000004L278.30423940149626,297.7905L278.47049044056524,297.83025000000004L278.6367414796342,297.8235L278.80299251870326,297.93L278.96924355777224,297.9015L279.1354945968412,297.921L279.30174563591027,298.05075L279.4679966749792,298.1205L279.63424771404823,298.11075L279.8004987531172,298.113L279.9667497921862,298.10175L280.13300083125523,298.1505L280.29925187032416,298.11525L280.4655029093932,298.10925000000003L280.6317539484622,298.04175L280.79800498753116,297.95925L280.9642560266002,297.99L281.1305070656692,298.01025L281.29675810473816,298.0935L281.46300914380714,298.098L281.6292601828761,298.09725L281.79551122194516,298.125L281.96176226101414,298.1085L282.1280133000831,297.9345L282.2942643391521,298.00124999999997L282.4605153782211,297.933L282.6267664172901,297.699L282.7930174563591,297.519L282.9592684954281,297.62399999999997L283.1255195344971,297.7785L283.29177057356605,297.74625L283.4580216126351,297.61650000000003L283.6242726517041,297.71925L283.7905236907731,297.6855L283.95677472984204,297.79575L284.123025768911,297.77925L284.28927680798006,297.75375L284.45552784704904,297.75675L284.6217788861181,297.681L284.78802992518706,297.64425L284.954280964256,297.639L285.120532003325,297.65475L285.286783042394,297.5565L285.45303408146304,297.41925000000003L285.619285120532,297.43575L285.785536159601,297.4515L285.95178719867,297.6015L286.118038237739,297.7185L286.284289276808,297.6975L286.450540315877,297.68475L286.616791354946,297.6675L286.78304239401496,297.687L286.94929343308394,297.741L287.115544472153,297.68175L287.28179551122196,297.7065L287.44804655029094,297.69975L287.6142975893599,297.6945L287.7805486284289,297.657L287.94679966749794,297.63225L288.1130507065669,297.6105L288.2793017456359,297.6075L288.44555278470494,297.65625L288.61180382377387,297.65250000000003L288.7780548628429,297.62925L288.9443059019119,297.58275L289.11055694098087,297.54075L289.2768079800499,297.522L289.4430590191189,297.474L289.6093100581879,297.45599999999996L289.77556109725685,297.46574999999996L289.94181213632584,297.50325L290.1080631753949,297.3825L290.27431421446386,297.44624999999996L290.44056525353284,297.5565L290.6068162926018,297.5715L290.7730673316708,297.59700000000004L290.93931837073984,297.51525000000004L291.1055694098088,297.57824999999997L291.2718204488778,297.09975L291.4380714879468,297.33975L291.60432252701577,297.27525L291.7705735660848,297.33075L291.9368246051538,297.33825L292.1030756442228,297.432L292.26932668329175,297.56775L292.43557772236073,297.495L292.6018287614298,297.56325L292.76807980049875,297.7395L292.9343308395678,297.681L293.1005818786367,297.88125L293.2668329177057,297.7275L293.43308395677474,297.65925L293.5993349958437,297.70574999999997L293.76558603491276,297.6615L293.93183707398174,297.693L294.0980881130507,297.75225L294.2643391521197,297.84000000000003L294.4305901911887,297.81375L294.5968412302577,297.80925L294.7630922693267,297.80925L294.9293433083957,297.88275L295.09559434746467,297.85575L295.26184538653365,297.87L295.4280964256027,297.88725L295.59434746467167,297.82575L295.76059850374065,297.78225L295.92684954280963,297.81825L296.0931005818786,297.81600000000003L296.25935162094765,297.7965L296.42560266001664,297.68475L296.5918536990856,297.78749999999997L296.7581047381546,297.7455L296.9243557772236,297.804L297.0906068162926,297.822L297.2568578553616,297.8685L297.4231088944306,297.8265L297.5893599334996,297.84000000000003L297.75561097256855,297.88125L297.9218620116376,297.9585L298.08811305070657,298.02L298.25436408977555,297.98925L298.4206151288446,298.0155L298.58686616791357,297.95775000000003L298.75311720698255,297.90225000000004L298.91936824605153,297.92775L299.0856192851205,297.99375000000003L299.25187032418955,297.97499999999997L299.41812136325854,297.96524999999997L299.5843724023275,298.00425L299.7506234413965,298.00350000000003L299.9168744804655,297.99075L300.0831255195345,298.035L300.2493765586035,298.10699999999997L300.4156275976725,298.16249999999997L300.58187863674146,298.1385L300.74812967581045,298.11674999999997L300.9143807148795,298.13100000000003L301.08063175394847,298.053L301.24688279301745,298.05375L301.41313383208643,297.9825L301.5793848711554,298.10175L301.74563591022445,298.11825L301.91188694929343,298.11375L302.0781379883624,298.12425L302.24438902743145,298.15425L302.4106400665004,298.17225L302.5768911055694,298.20075L302.7431421446384,298.18125000000003L302.9093931837074,298.1805L303.0756442227764,298.16925L303.2418952618454,298.15500000000003L303.4081463009144,298.15875L303.57439733998336,298.044L303.74064837905235,297.96075L303.9068994181214,297.96825L304.07315045719037,297.996L304.23940149625935,298.0605L304.40565253532833,298.056L304.5719035743973,298.13550000000004L304.73815461346635,298.329L304.90440565253533,298.35224999999997L305.0706566916043,298.38375L305.2369077306733,298.33425L305.4031587697423,298.3245L305.5694098088113,298.33275L305.7356608478803,298.20975L305.9019118869493,298.209L306.06816292601826,298.23675000000003L306.23441396508724,298.25625L306.4006650041563,298.23L306.56691604322526,298.2585L306.7331670822943,298.2405L306.8994181213633,298.20750000000004L307.0656691604322,298.2405L307.23192019950125,298.209L307.3981712385702,298.251L307.56442227763927,298.24125L307.73067331670825,298.245L307.8969243557772,298.16475L308.0631753948462,298.09125L308.2294264339152,298.1175L308.39567747298423,298.04475L308.5619285120532,297.93375L308.7281795511222,297.9705L308.8944305901912,297.94275L309.06068162926016,297.9525L309.2269326683292,297.91949999999997L309.3931837073982,298.07624999999996L309.55943474646716,298.12875L309.72568578553614,298.0965L309.8919368246051,297.987L310.05818786367416,298.0335L310.22443890274315,298.0095L310.3906899418121,298.0155L310.5569409808811,298.00875L310.7231920199501,298.038L310.88944305901913,298.03875L311.0556940980881,298.0275L311.2219451371571,298.02975000000004L311.38819617622613,298.02225L311.55444721529506,298.03950000000003L311.7206982543641,298.032L311.8869492934331,298.029L312.05320033250206,297.95625L312.2194513715711,298.01025L312.3857024106401,297.96524999999997L312.55195344970906,297.91875L312.71820448877804,297.96375L312.884455527847,297.95625L313.05070656691606,297.9765L313.21695760598504,297.99L313.383208645054,298.00725L313.549459684123,297.99825L313.715710723192,298.014L313.881961762261,298.068L314.04821280133,298.089L314.214463840399,298.08299999999997L314.380714879468,298.1805L314.54696591853696,298.2285L314.713216957606,298.12125000000003L314.879467996675,298.22625L315.045719035744,298.2855L315.21197007481294,298.28175L315.3782211138819,298.24575L315.54447215295096,298.26525L315.71072319201994,298.158L315.876974231089,298.26L316.04322527015796,298.281L316.2094763092269,298.32375L316.3757273482959,298.33725L316.5419783873649,298.344L316.70822942643395,298.33275L316.8744804655029,298.3305L317.0407315045719,298.3275L317.2069825436409,298.3215L317.3732335827099,298.344L317.5394846217789,298.347L317.7057356608479,298.36125L317.8719866999169,298.359L318.03823773898586,298.36875L318.20448877805484,298.3725L318.3707398171239,298.3845L318.53699085619286,298.40925L318.70324189526184,298.48650000000004L318.8694929343308,298.36275L319.0357439733998,298.40775L319.20199501246884,298.44375L319.3682460515378,298.437L319.5344970906068,298.41375L319.70074812967584,298.44525L319.86699916874477,298.44525L320.0332502078138,298.434L320.1995012468828,298.4565L320.36575228595177,298.46025000000003L320.5320033250208,298.452L320.69825436408973,298.449L320.8645054031588,298.4595L321.03075644222776,298.479L321.19700748129674,298.47525L321.3632585203658,298.49325L321.52950955943476,298.39125L321.69576059850374,298.31925L321.8620116375727,298.18575L322.0282626766417,298.15274999999997L322.19451371571074,298.17525L322.3607647547797,298.28024999999997L322.5270157938487,298.308L322.6932668329177,298.233L322.85951787198667,298.2645L323.0257689110557,298.21425L323.1920199501247,298.2315L323.35827098919367,298.1475L323.52452202826265,298.22325L323.69077306733163,298.24125L323.8570241064007,298.1325L324.02327514546965,298.11975L324.1895261845387,298.19625L324.3557772236076,298.2195L324.5220282626766,298.218L324.68827930174564,298.25775L324.8545303408146,298.29900000000004L325.02078137988366,298.293L325.18703241895264,298.30725L325.35328345802156,298.27125L325.5195344970906,298.224L325.6857855361596,298.16249999999997L325.8520365752286,298.20750000000004L326.0182876142976,298.17L326.1845386533666,298.2045L326.35078969243557,298.1835L326.51704073150455,298.149L326.6832917705736,298.17L326.84954280964257,298.12275L327.01579384871155,298.0635L327.18204488778053,298.01025L327.3482959268495,297.92325L327.51454696591856,297.63075L327.68079800498754,297.576L327.8470490440565,297.7605L328.0133000831255,297.71925L328.1795511221945,297.68025L328.3458021612635,297.7305L328.5120532003325,297.65250000000003L328.6783042394015,297.81L328.8445552784705,297.91949999999997L329.01080631753945,297.966L329.1770573566085,297.87075L329.34330839567747,298.032L329.50955943474645,298.00575L329.6758104738155,298.014L329.84206151288447,298.04925000000003L330.00831255195345,297.99L330.17456359102243,298.0575L330.3408146300914,298.143L330.50706566916045,298.24575L330.67331670822944,298.257L330.8395677472984,298.28325L331.0058187863674,298.32375L331.1720698254364,298.29375L331.3383208645054,298.23825L331.5045719035744,298.12575000000004L331.6708229426434,298.2015L331.83707398171236,298.1205L332.00332502078135,298.128L332.1695760598504,298.19625L332.33582709891937,298.35975L332.5020781379884,298.3395L332.66832917705733,298.34475000000003L332.8345802161263,298.36199999999997L333.00083125519535,298.84725000000003L333.16708229426433,298.6965L333.33333333333337,298.7505L333.4995843724023,298.73625000000004L333.6658354114713,298.80975L333.8320864505403,298.80975L333.9983374896093,298.8255L334.16458852867834,298.67025L334.3308395677473,298.67025L334.4970906068163,298.66125L334.6633416458853,298.70175L334.82959268495426,298.64625L334.9958437240233,298.61175L335.1620947630923,298.6245L335.32834580216127,298.6185L335.49459684123025,298.64475L335.66084788029923,298.6665L335.82709891936827,298.70775L335.99334995843725,298.62675L336.15960099750623,298.64175L336.3258520365752,298.59975L336.4921030756442,298.5885L336.65835411471323,298.61025L336.8246051537822,298.59L336.9908561928512,298.60125L337.1571072319202,298.515L337.32335827098916,298.50225L337.4896093100582,298.491L337.6558603491272,298.48425L337.82211138819616,298.524L337.9883624272652,298.5075L338.1546134663341,298.5075L338.32086450540316,298.53075L338.48711554447215,298.527L338.6533665835411,298.545L338.81961762261017,298.479M339.15211970074813,298.45425L339.3183707398171,298.4565L339.4846217788861,298.51349999999996L339.65087281795513,298.52175L339.8171238570241,298.49175L339.9833748960931,298.46475L340.1496259351621,298.42275L340.31587697423106,298.3935L340.4821280133001,298.19325L340.6483790523691,298.23375L340.81463009143806,298.24575L340.98088113050704,298.11225L341.147132169576,298.16775L341.31338320864506,298.1295L341.47963424771405,298.08825L341.6458852867831,298.1175L341.812136325852,298.13925L341.978387364921,298.137L342.14463840399003,298.10325L342.310889443059,298.002L342.47714048212805,298.03125L342.64339152119703,298.04024999999996L342.80964256026596,298.15575L342.975893599335,298.19025L343.142144638404,298.15274999999997L343.308395677473,298.10925000000003L343.474646716542,298.0695L343.640897755611,298.1205L343.80714879467996,298.11525L343.97339983374894,298.0965L344.139650872818,298.09275L344.30590191188696,298.0965L344.47215295095594,298.119L344.6384039900249,298.13625L344.8046550290939,298.10025L344.97090606816295,298.092L345.1371571072319,298.1565L345.3034081463009,298.095L345.4696591853699,298.13550000000004L345.6359102244389,298.1175L345.8021612635079,298.10699999999997L345.9684123025769,298.101L346.1346633416459,298.03875L346.30091438071486,298.08375L346.46716541978384,298.01475L346.6334164588529,298.07925L346.79966749792186,298.06275L346.96591853699084,298.02675L347.1321695760599,298.053L347.29842061512886,298.05975L347.46467165419784,298.0455L347.6309226932668,298.062L347.7971737323358,298.07325L347.96342477140485,298.062L348.1296758104738,298.161L348.2959268495428,298.11L348.4621778886118,298.10025L348.6284289276808,298.11674999999997L348.7946799667498,298.14075L348.9609310058188,298.13475L349.1271820448878,298.13625L349.29343308395676,298.146L349.45968412302574,298.17375L349.6259351620948,298.16475L349.79218620116376,298.16475L349.95843724023274,298.1445L350.1246882793017,298.137L350.2909393183707,298.1775L350.45719035743974,298.18725L350.6234413965087,298.23075L350.78969243557776,298.26525L350.9559434746467,298.2555L351.12219451371567,298.26525L351.2884455527847,298.26L351.4546965918537,298.23449999999997L351.62094763092273,298.22925L351.7871986699917,298.26300000000003L351.95344970906064,298.26825L352.1197007481297,298.26825L352.28595178719866,298.038L352.4522028262677,297.6825L352.6184538653367,296.4375L352.78470490440566,296.70225L352.95095594347464,297.36375000000004L353.1172069825436,297.14175L353.28345802161266,297.27750000000003L353.44970906068164,297.61650000000003L353.6159600997506,297.5295L353.7822111388196,297.68625L353.9484621778886,297.75375L354.1147132169576,297.70425L354.2809642560266,297.39525L354.4472152950956,297.4635L354.61346633416457,297.57075000000003L354.77971737323355,297.52125L354.9459684123026,297.53625L355.1122194513716,297.52875L355.27847049044055,297.585L355.4447215295096,297.5745L355.6109725685785,297.57375L355.77722360764756,297.63525L355.94347464671654,297.60225L356.1097256857855,297.606L356.27597672485456,297.57675L356.44222776392354,297.58125L356.6084788029925,297.23325L356.7747298420615,297.498L356.9409808811305,297.45825L357.1072319201995,297.34875L357.2734829592685,297.36525L357.4397339983375,297.33L357.60598503740647,297.35025L357.77223607647545,297.3675L357.9384871155445,297.40275L358.1047381546135,297.37575L358.27098919368245,297.4545L358.43724023275144,297.387L358.6034912718204,297.36225L358.76974231088946,297.32925L358.93599334995844,297.34575L359.1022443890274,297.357L359.2684954280964,297.30675L359.4347464671654,297.36449999999996L359.6009975062344,297.432L359.7672485453034,297.40575L359.93349958437244,297.45525000000004L360.0997506234414,297.4185L360.26600166251035,297.4395L360.4322527015794,297.43649999999997L360.59850374064837,297.52125L360.7647547797174,297.52275L360.9310058187864,297.59775L361.0972568578553,297.549L361.26350789692435,297.5385L361.42975893599333,297.52500000000003L361.5960099750624,297.58425L361.76226101413135,297.558L361.92851205320034,297.6585L362.0947630922693,297.8985L362.2610141313383,297.82575L362.42726517040734,297.9315L362.5935162094763,297.90975L362.7597672485453,297.89175L362.9260182876143,297.933L363.09226932668327,297.91575L363.2585203657523,297.89625L363.4247714048213,297.8955L363.59102244389027,297.88575000000003L363.75727348295925,297.918L363.92352452202823,297.89775L364.08977556109727,297.87600000000003L364.25602660016625,297.8805L364.42227763923523,297.8895L364.5885286783043,297.897L364.7547797173732,297.9045L364.92103075644224,297.9165L365.0872817955112,298.0275L365.2535328345802,298.008L365.41978387364924,298.077L365.5860349127182,298.017L365.7522859517872,297.9705L365.9185369908562,297.969L366.08478802992516,297.97425L366.2510390689942,298.0065L366.4172901080632,297.98925L366.58354114713217,298.0185L366.74979218620115,298.03875L366.91604322527013,298.062L367.08229426433917,298.04625L367.24854530340815,298.0155L367.41479634247713,298.02975000000004L367.5810473815461,298.0425L367.7472984206151,298.05L367.91354945968413,298.04775M368.24605153782215,298.00875L368.4123025768911,297.99449999999996M368.9110556940981,298.02225L369.0773067331671,298.05525L369.2435577722361,298.041L369.409808811305,298.06425L369.57605985037407,298.0605L369.74231088944305,298.0575L369.9085619285121,298.04925000000003L370.07481296758107,298.0275L370.24106400665005,298.00875L370.40731504571903,298.01475L370.573566084788,298.0155L370.73981712385705,298.01025L370.90606816292603,297.99075L371.072319201995,297.99225L371.238570241064,298.05375L371.404821280133,298.06425L371.571072319202,298.0515L371.737323358271,298.068L371.90357439734,298.0635L372.06982543640896,298.11225L372.23607647547794,298.104L372.402327514547,298.10025L372.56857855361596,298.03725L372.73482959268495,297.93L372.901080631754,297.99675L373.0673316708229,297.96675L373.23358270989195,297.9975L373.39983374896093,297.93525L373.5660847880299,297.92325L373.73233582709895,297.91575L373.8985868661679,297.88425L374.0648379052369,297.92025L374.2310889443059,297.91875L374.3973399833749,297.8355L374.5635910224439,297.798L374.7298420615129,297.81825L374.8960931005819,297.81675L375.06234413965086,297.762L375.22859517871984,297.36975L375.3948462177889,297.50325L375.56109725685786,297.264L375.72734829592684,296.847L375.8935993349958,297.20475L376.0598503740648,297.5625L376.22610141313385,297.54375L376.39235245220283,297.44624999999996L376.5586034912718,297.414L376.7248545303408,297.33675L376.8911055694098,297.49875L377.0573566084788,297.4695L377.2236076475478,297.42900000000003L377.38985868661683,297.5265L377.55610972568576,297.45225L377.72236076475474,297.459L377.8886118038238,297.4935L378.05486284289276,297.61575L378.2211138819618,297.6315L378.3873649210308,297.67125L378.5536159600997,297.69075L378.71986699916874,297.62775L378.8861180382377,297.558L379.05236907730676,297.57675L379.21862011637575,297.5955L379.3848711554447,297.438L379.5511221945137,297.2025L379.7173732335827,297.1065L379.88362427265173,297.05475L380.0498753117207,296.53125L380.2161263507897,296.40975L380.3823773898587,296.61899999999997L380.54862842892766,297.174L380.7148794679967,296.5725L380.8811305070657,296.5635L381.04738154613466,296.6295L381.21363258520364,296.589L381.3798836242726,296.556L381.54613466334166,296.6355L381.71238570241064,296.523L381.8786367414796,296.4885L382.04488778054866,295.73625L382.2111388196176,292.03875L382.3773898586866,292.67175L382.5436408977556,292.67475L382.7098919368246,292.56L382.87614297589363,292.15125L383.0423940149626,292.6935L383.2086450540316,292.6155L383.3748960931006,292.35450000000003L383.54114713216956,292.605L383.7073981712386,293.37375L383.8736492103076,293.95275L384.03990024937656,293.538L384.20615128844554,292.95225L384.3724023275145,292.97325L384.53865336658356,293.05125L384.70490440565254,293.19975L384.8711554447215,293.12175L385.0374064837905,293.1765L385.2036575228595,293.20500000000004L385.3699085619285,293.8755L385.5361596009975,293.60699999999997L385.70241064006655,293.56575000000004L385.86866167913547,293.45475L386.03491271820445,293.71275L386.2011637572735,293.80875000000003L386.3674147963425,294.3885L386.5336658354115,290.58375L386.69991687448044,264.6285L386.8661679135494,278.868L387.03241895261846,272.103L387.19866999168744,273.84375L387.3649210307565,276.36L387.53117206982546,272.16L387.69742310889444,260.03325L387.8636741479634,264.79875L388.0299251870324,256.80375000000004L388.19617622610144,240.9135L388.3624272651704,240.88125L388.5286783042394,247.44750000000002L388.6949293433084,245.328L388.86118038237737,247.74300000000002L389.0274314214464,247.44825L389.1936824605154,250.16250000000002L389.3599334995844,253.09725000000003L389.52618453865335,257.55674999999997L389.69243557772234,259.86L389.8586866167914,262.968L390.02493765586036,255.34425000000002L390.19118869492934,258.64575L390.3574397339983,259.212L390.5236907730673,258.015L390.68994181213634,259.70624999999995L390.8561928512053,264.456L391.0224438902743,257.58375L391.18869492934334,262.37475L391.35494596841227,262.14L391.5211970074813,262.43775L391.6874480465503,263.961L391.85369908561927,262.05075L392.0199501246883,262.3035L392.1862011637573,262.05600000000004L392.35245220282627,262.464L392.51870324189525,262.79325L392.68495428096423,261.762L392.8512053200333,260.9085L393.01745635910225,253.53825L393.18370739817124,256.5015L393.3499584372402,257.997L393.5162094763092,258.0615L393.68246051537824,258.48825L393.8487115544472,253.176L394.0149625935162,256.05600000000004L394.1812136325852,257.184L394.34746467165417,256.04475L394.5137157107232,256.76025L394.6799667497922,256.96274999999997L394.8462177888612,256.254L395.01246882793015,255.77925L395.17871986699913,257.0745L395.34497090606817,258.7785L395.51122194513715,259.833L395.6774729842062,261.2235L395.8437240232752,261.414L396.0099750623441,259.536L396.17622610141314,259.21725000000004L396.3424771404821,259.7265L396.50872817955116,259.461L396.67497921862014,259.575L396.8412302576891,259.75725L397.0074812967581,253.5105L397.1737323358271,256.752L397.3399833748961,258.147L397.5062344139651,256.947L397.6724854530341,255.22799999999998L397.83873649210307,251.6565L398.00498753117205,255.729L398.1712385702411,253.902L398.33748960931007,253.73700000000002L398.50374064837905,252.11625L398.66999168744803,244.01325000000003L398.836242726517,246.92475000000002L399.00249376558605,229.91625L399.16874480465503,208.86225000000002L399.334995843724,163.34475L399.501246882793,25.59750000000003L399.667497921862,86.87025L399.833748960931,59.64375000000002L400,23.59650000000004" stroke="#4c78a8" stroke-width="2"/></g><g class="mark-group role-title"><g transform="translate(200,-22)"><path class="background" aria-hidden="true" d="M0,0h0v0h0Z" pointer-events="none"/><g><g class="mark-text role-title-text" role="graphics-symbol" aria-roledescription="title" aria-label="Title text 'Dogecoin Price Over Time'" pointer-events="none"><text text-anchor="middle" transform="translate(0,10)" font-family="sans-serif" font-size="13px" font-weight="bold" fill="#000" opacity="1">Dogecoin Price Over Time</text></g></g><path class="foreground" aria-hidden="true" d="" pointer-events="none" display="none"/></g></g></g><path class="foreground" aria-hidden="true" d="" display="none"/></g></g></g></svg>